<svg xmlns="http://www.w3.org/2000/svg" viewBox="0 0 1200 880" font-family="Arial, Helvetica, sans-serif">
  <defs>
    <marker id="arrow" markerWidth="10" markerHeight="7" refX="9" refY="3.5" orient="auto">
      <polygon points="0 0, 10 3.5, 0 7" fill="#888"/>
    </marker>
    <marker id="arrowDark" markerWidth="12" markerHeight="8" refX="11" refY="4" orient="auto">
      <polygon points="0 0, 12 4, 0 8" fill="#333"/>
    </marker>
  </defs>

  <rect width="1200" height="880" fill="white"/>

  <!-- Title -->
  <text x="640" y="40" text-anchor="middle" font-size="26" font-weight="bold" fill="#222">Temporal Sharing</text>

  <!-- Time arrow on the left -->
  <line x1="42" y1="70" x2="42" y2="810" stroke="#333" stroke-width="2.5" marker-end="url(#arrowDark)"/>
  <text x="42" y="850" text-anchor="middle" font-size="15" font-weight="bold" fill="#333">Time</text>

  <rect x="18" y="230" width="48" height="28" rx="5" fill="#c8e6c9" stroke="#66bb6a" stroke-width="1.5"/>
  <text x="42" y="249" text-anchor="middle" font-size="13" font-weight="bold" fill="#2e7d32">t1</text>

  <rect x="18" y="600" width="48" height="28" rx="5" fill="#e1bee7" stroke="#ab47bc" stroke-width="1.5"/>
  <text x="42" y="619" text-anchor="middle" font-size="13" font-weight="bold" fill="#6a1b9a">t2</text>

  <!-- ======== TIME SLOT t1 — Model A ======== -->
  <text x="640" y="80" text-anchor="middle" font-size="16" font-weight="bold" fill="#555">Time Slot t1  —  Model A</text>

  <!-- Single IFM A -->
  <rect x="105" y="100" width="110" height="40" rx="6" fill="#c8e6c9" stroke="#81c784" stroke-width="1.5"/>
  <text x="160" y="126" text-anchor="middle" font-size="14" font-weight="bold" fill="#2e7d32">IFM A</text>

  <!-- Arrow IFM A → NPU -->
  <line x1="160" y1="140" x2="160" y2="190" stroke="#888" stroke-width="1.5" marker-end="url(#arrow)"/>

  <!-- NPU block t1 -->
  <rect x="85" y="190" width="1095" height="110" rx="14" fill="#fdf6e3" stroke="#ccc" stroke-width="2"/>
  <text x="640" y="213" text-anchor="middle" font-size="16" font-weight="bold" fill="#333">NPU</text>

  <!-- Active column 0–3 (light green) -->
  <rect x="100" y="223" width="105" height="60" rx="8" fill="#c8e6c9" stroke="#66bb6a" stroke-width="2"/>
  <text x="152" y="248" text-anchor="middle" font-size="12" font-weight="bold" fill="#2e7d32">Col 0–3</text>
  <text x="152" y="270" text-anchor="middle" font-size="13" font-weight="bold" fill="#2e7d32">4x4</text>

  <!-- Grey unused columns for t1 -->
  <rect x="220" y="223" width="105" height="60" rx="8" fill="#e0e0e0" stroke="#bdbdbd" stroke-width="1.5"/>
  <text x="272" y="248" text-anchor="middle" font-size="12" font-weight="bold" fill="#9e9e9e">Col 4–7</text>
  <text x="272" y="270" text-anchor="middle" font-size="13" font-weight="bold" fill="#9e9e9e">4x4</text>

  <rect x="340" y="223" width="105" height="60" rx="8" fill="#e0e0e0" stroke="#bdbdbd" stroke-width="1.5"/>
  <text x="392" y="248" text-anchor="middle" font-size="12" font-weight="bold" fill="#9e9e9e">Col 8–11</text>
  <text x="392" y="270" text-anchor="middle" font-size="13" font-weight="bold" fill="#9e9e9e">4x4</text>

  <rect x="460" y="223" width="105" height="60" rx="8" fill="#e0e0e0" stroke="#bdbdbd" stroke-width="1.5"/>
  <text x="512" y="248" text-anchor="middle" font-size="12" font-weight="bold" fill="#9e9e9e">Col 12–15</text>
  <text x="512" y="270" text-anchor="middle" font-size="13" font-weight="bold" fill="#9e9e9e">4x4</text>

  <rect x="580" y="223" width="105" height="60" rx="8" fill="#e0e0e0" stroke="#bdbdbd" stroke-width="1.5"/>
  <text x="632" y="248" text-anchor="middle" font-size="12" font-weight="bold" fill="#9e9e9e">Col 16–19</text>
  <text x="632" y="270" text-anchor="middle" font-size="13" font-weight="bold" fill="#9e9e9e">4x4</text>

  <rect x="700" y="223" width="105" height="60" rx="8" fill="#e0e0e0" stroke="#bdbdbd" stroke-width="1.5"/>
  <text x="752" y="248" text-anchor="middle" font-size="12" font-weight="bold" fill="#9e9e9e">Col 20–23</text>
  <text x="752" y="270" text-anchor="middle" font-size="13" font-weight="bold" fill="#9e9e9e">4x4</text>

  <rect x="820" y="223" width="105" height="60" rx="8" fill="#e0e0e0" stroke="#bdbdbd" stroke-width="1.5"/>
  <text x="872" y="248" text-anchor="middle" font-size="12" font-weight="bold" fill="#9e9e9e">Col 24–27</text>
  <text x="872" y="270" text-anchor="middle" font-size="13" font-weight="bold" fill="#9e9e9e">4x4</text>

  <rect x="940" y="223" width="105" height="60" rx="8" fill="#e0e0e0" stroke="#bdbdbd" stroke-width="1.5"/>
  <text x="992" y="248" text-anchor="middle" font-size="12" font-weight="bold" fill="#9e9e9e">Col 28–31</text>
  <text x="992" y="270" text-anchor="middle" font-size="13" font-weight="bold" fill="#9e9e9e">4x4</text>

  <rect x="1060" y="223" width="105" height="60" rx="8" fill="#e0e0e0" stroke="#bdbdbd" stroke-width="1.5"/>
  <text x="1112" y="248" text-anchor="middle" font-size="11" font-weight="bold" fill="#9e9e9e">Col 32–35</text>
  <text x="1112" y="270" text-anchor="middle" font-size="13" font-weight="bold" fill="#9e9e9e">4x4</text>

  <!-- Arrow NPU → OFM A -->
  <line x1="160" y1="300" x2="160" y2="340" stroke="#888" stroke-width="1.5" marker-end="url(#arrow)"/>

  <!-- Single OFM A -->
  <rect x="105" y="345" width="110" height="40" rx="6" fill="#ffcdd2" stroke="#ef9a9a" stroke-width="1.5"/>
  <text x="160" y="371" text-anchor="middle" font-size="14" font-weight="bold" fill="#c62828">OFM A</text>

  <!-- ===== Separator ===== -->
  <line x1="85" y1="420" x2="1180" y2="420" stroke="#e65100" stroke-width="2" stroke-dasharray="8,5"/>
  <text x="640" y="445" text-anchor="middle" font-size="14" font-weight="bold" fill="#e65100">Same NPU Columns (start_column = 0)</text>

  <!-- ======== TIME SLOT t2 — Model B ======== -->
  <text x="640" y="478" text-anchor="middle" font-size="16" font-weight="bold" fill="#555">Time Slot t2  —  Model B</text>

  <!-- Single IFM B -->
  <rect x="105" y="495" width="110" height="40" rx="6" fill="#c8e6c9" stroke="#81c784" stroke-width="1.5"/>
  <text x="160" y="521" text-anchor="middle" font-size="14" font-weight="bold" fill="#2e7d32">IFM B</text>

  <!-- Arrow IFM B → NPU -->
  <line x1="160" y1="535" x2="160" y2="575" stroke="#888" stroke-width="1.5" marker-end="url(#arrow)"/>

  <!-- NPU block t2 -->
  <rect x="85" y="575" width="1095" height="110" rx="14" fill="#fdf6e3" stroke="#ccc" stroke-width="2"/>
  <text x="640" y="598" text-anchor="middle" font-size="16" font-weight="bold" fill="#333">NPU</text>

  <!-- Active column 0–3 (light purple) -->
  <rect x="100" y="608" width="105" height="60" rx="8" fill="#e1bee7" stroke="#ab47bc" stroke-width="2"/>
  <text x="152" y="633" text-anchor="middle" font-size="12" font-weight="bold" fill="#6a1b9a">Col 0–3</text>
  <text x="152" y="655" text-anchor="middle" font-size="13" font-weight="bold" fill="#6a1b9a">4x4</text>

  <!-- Grey unused columns for t2 -->
  <rect x="220" y="608" width="105" height="60" rx="8" fill="#e0e0e0" stroke="#bdbdbd" stroke-width="1.5"/>
  <text x="272" y="633" text-anchor="middle" font-size="12" font-weight="bold" fill="#9e9e9e">Col 4–7</text>
  <text x="272" y="655" text-anchor="middle" font-size="13" font-weight="bold" fill="#9e9e9e">4x4</text>

  <rect x="340" y="608" width="105" height="60" rx="8" fill="#e0e0e0" stroke="#bdbdbd" stroke-width="1.5"/>
  <text x="392" y="633" text-anchor="middle" font-size="12" font-weight="bold" fill="#9e9e9e">Col 8–11</text>
  <text x="392" y="655" text-anchor="middle" font-size="13" font-weight="bold" fill="#9e9e9e">4x4</text>

  <rect x="460" y="608" width="105" height="60" rx="8" fill="#e0e0e0" stroke="#bdbdbd" stroke-width="1.5"/>
  <text x="512" y="633" text-anchor="middle" font-size="12" font-weight="bold" fill="#9e9e9e">Col 12–15</text>
  <text x="512" y="655" text-anchor="middle" font-size="13" font-weight="bold" fill="#9e9e9e">4x4</text>

  <rect x="580" y="608" width="105" height="60" rx="8" fill="#e0e0e0" stroke="#bdbdbd" stroke-width="1.5"/>
  <text x="632" y="633" text-anchor="middle" font-size="12" font-weight="bold" fill="#9e9e9e">Col 16–19</text>
  <text x="632" y="655" text-anchor="middle" font-size="13" font-weight="bold" fill="#9e9e9e">4x4</text>

  <rect x="700" y="608" width="105" height="60" rx="8" fill="#e0e0e0" stroke="#bdbdbd" stroke-width="1.5"/>
  <text x="752" y="633" text-anchor="middle" font-size="12" font-weight="bold" fill="#9e9e9e">Col 20–23</text>
  <text x="752" y="655" text-anchor="middle" font-size="13" font-weight="bold" fill="#9e9e9e">4x4</text>

  <rect x="820" y="608" width="105" height="60" rx="8" fill="#e0e0e0" stroke="#bdbdbd" stroke-width="1.5"/>
  <text x="872" y="633" text-anchor="middle" font-size="12" font-weight="bold" fill="#9e9e9e">Col 24–27</text>
  <text x="872" y="655" text-anchor="middle" font-size="13" font-weight="bold" fill="#9e9e9e">4x4</text>

  <rect x="940" y="608" width="105" height="60" rx="8" fill="#e0e0e0" stroke="#bdbdbd" stroke-width="1.5"/>
  <text x="992" y="633" text-anchor="middle" font-size="12" font-weight="bold" fill="#9e9e9e">Col 28–31</text>
  <text x="992" y="655" text-anchor="middle" font-size="13" font-weight="bold" fill="#9e9e9e">4x4</text>

  <rect x="1060" y="608" width="105" height="60" rx="8" fill="#e0e0e0" stroke="#bdbdbd" stroke-width="1.5"/>
  <text x="1112" y="633" text-anchor="middle" font-size="11" font-weight="bold" fill="#9e9e9e">Col 32–35</text>
  <text x="1112" y="655" text-anchor="middle" font-size="13" font-weight="bold" fill="#9e9e9e">4x4</text>

  <!-- Arrow NPU → OFM B -->
  <line x1="160" y1="685" x2="160" y2="725" stroke="#888" stroke-width="1.5" marker-end="url(#arrow)"/>

  <!-- Single OFM B -->
  <rect x="105" y="730" width="110" height="40" rx="6" fill="#ffcdd2" stroke="#ef9a9a" stroke-width="1.5"/>
  <text x="160" y="756" text-anchor="middle" font-size="14" font-weight="bold" fill="#c62828">OFM B</text>

  <!-- Subtitle -->
  <text x="640" y="810" text-anchor="middle" font-size="13" fill="#666">Models take turns on the same NPU columns — one runs at a time.</text>
  <text x="640" y="832" text-anchor="middle" font-size="13" fill="#666">aie_columns_sharing = true, start_column is identical for both models.</text>
</svg>
